# xmcd
#
# Track frame offsets:
# 182
# 12937
# 21407
# 31555
# 46437
# 54607
# 63955
# 77535
# 91385
# 100177
# 114020
# 125192
# 135505
# 147220
# 157082
# 174060
# 185640
# 197985
# 207920
# 216130
# 227345
# 237992
# 251312
# 264000
# 275597
# 284632
# 293780
# 304857
#
# Disc length: 4184 seconds
#
#
# Revision: 0
# Processed by: cddbd v1.5.1PL2 Copyright (c) Steve Scherf et al.
# Submitted via: FreeRIP 2.944 
#
DISCID=8910561c
DTITLE=Willie Nelson - Sings 28 Great Songs
DYEAR=1988
DGENRE=Country
TTITLE0=Any Old Arms
TTITLE1=Slow Down World
TTITLE2=Healing Hands of Time
TTITLE3=And So Will you my Love
TTITLE4=Things to Remember
TTITLE5=One Step Beyond
TTITLE6=Undo the Wrong
TTITLE7=Home is Where you're Happy
TTITLE8=Why are you picking on Me
TTITLE9=No Tomorrow in Sight
TTITLE10=A New Way to Cry
TTITLE11=Broken Promises
TTITLE12=Happiness Lives Next Door
TTITLE13=Let's Pretend
TTITLE14=I Let my Mind Wander
TTITLE15=December Days
TTITLE16=I Can't Find the Time
TTITLE17=I Didn't Sleep a Wink
TTITLE18=You Wouldn't Cross the Street to Say Goodbye
TTITLE19=Suffering in Silience
TTITLE20=I feel Sorry for Him
TTITLE21=You'll always have Someone
TTITLE22=I just Don't Understand
TTITLE23=I'm gonna lose a lot of Teardrops
TTITLE24=The Ghost
TTITLE25=Waiting Time
TTITLE26=Go Away
TTITLE27=Right from Wrong
EXTD=
EXTT0=
EXTT1=
EXTT2=
EXTT3=
EXTT4=
EXTT5=
EXTT6=
EXTT7=
EXTT8=
EXTT9=
EXTT10=
EXTT11=
EXTT12=
EXTT13=
EXTT14=
EXTT15=
EXTT16=
EXTT17=
EXTT18=
EXTT19=
EXTT20=
EXTT21=
EXTT22=
EXTT23=
EXTT24=
EXTT25=
EXTT26=
EXTT27=
PLAYORDER=
